<?xml version="1.0" encoding="UTF-8"?>
<svg width="200" height="60" viewBox="0 0 200 60" fill="none" xmlns="http://www.w3.org/2000/svg">
  <!-- Logo Symbol -->
  <rect x="10" y="10" width="40" height="40" rx="8" fill="#3B82F6"/>
  <path d="M25 25L35 30L25 35V25Z" fill="white"/>
  
  <!-- Logo Text -->
  <path d="M60 25H55V35H60V32.5H57.5V30H60V27.5H57.5V25H60Z" fill="#1F2937"/>
  <path d="M67.5 25H70L73.5 31.25V25H78V35H75.5L72 28.75V35H67.5V25Z" fill="#1F2937"/>
  <path d="M85 25V27.5H80V30H85V32.5H80V35H85.5V25H85Z" fill="#1F2937"/>
  <path d="M92.5 25H95V35H92.5V32.5H90V35H87.5V25H90V30H92.5V25Z" fill="#1F2937"/>
  <path d="M102.5 25H105V27.5H107.5V30H105V35H102.5V30H100V27.5H102.5V25Z" fill="#1F2937"/>
  <path d="M120 25V27.5H115V30H120V32.5H115V35H120.5V25H120Z" fill="#1F2937"/>
  <path d="M130 25H135C136.38 25 137.5 26.12 137.5 27.5V32.5C137.5 33.88 136.38 35 135 35H130V25ZM132.5 32.5H135V27.5H132.5V32.5Z" fill="#1F2937"/>
  <path d="M147.5 25V27.5H150V35H152.5V27.5H155V25H147.5Z" fill="#1F2937"/>
  <path d="M165 25V27.5H160V30H165V32.5H160V35H165.5V25H165Z" fill="#1F2937"/>
  <path d="M172.5 25H175L178.5 31.25V25H183V35H180.5L177 28.75V35H172.5V25Z" fill="#1F2937"/>
  <path d="M190 25H195C196.38 25 197.5 26.12 197.5 27.5V32.5C197.5 33.88 196.38 35 195 35H190V25ZM192.5 32.5H195V27.5H192.5V32.5Z" fill="#1F2937"/>
</svg>
